Land_normalized_pl13_filtered_grf
version=1
nRows=30
nColumns=37
inDegrees=yes
endheader
time		1_ground_force_vx		1_ground_force_vy		1_ground_force_vz		1_ground_force_px		1_ground_force_py		1_ground_force_pz		1_ground_torque_x		1_ground_torque_y		1_ground_torque_z		2_ground_force_vx		2_ground_force_vy		2_ground_force_vz		2_ground_force_px		2_ground_force_py		2_ground_force_pz		2_ground_torque_x		2_ground_torque_y		2_ground_torque_z		3_ground_force_vx		3_ground_force_vy		3_ground_force_vz		3_ground_force_px		3_ground_force_py		3_ground_force_pz		3_ground_torque_x		3_ground_torque_y		3_ground_torque_z		4_ground_force_vx		4_ground_force_vy		4_ground_force_vz		4_ground_force_px		4_ground_force_py		4_ground_force_pz		4_ground_torque_x		4_ground_torque_y		4_ground_torque_z		
1.599500		2.390388		-14.731004		-13.586193		0.160621		0.000000		0.190055		-0.003872		0.023860		0.022006		-5.092426		-39.869550		-15.063647		-0.131682		0.000000		0.244269		0.121440		0.950779		0.359226		21.362767		1.802594		0.398743		0.375822		1.310730		1.913838		-0.101580		-0.008571		-0.001896		-18.121488		-0.409979		1.496086		-0.265458		1.309897		1.925029		0.016762		0.000379		-0.001384		
1.602480		6.007038		-43.213317		-36.967299		0.162809		0.000000		0.198332		-0.000236		0.001692		0.001448		-2.403841		-73.191228		-33.173965		-0.131663		0.000000		0.246112		0.056797		1.729315		0.783812		21.317451		1.801183		0.448659		0.375782		1.310746		1.913824		-0.100811		-0.008518		-0.002122		-18.334086		-0.356223		1.386132		-0.265519		1.309907		1.925020		0.018253		0.000354		-0.001380		
1.605460		8.802965		-66.549706		-55.907940		0.163962		0.000000		0.201049		0.002996		-0.022650		-0.019027		3.522848		-88.056824		-45.183058		-0.132714		0.000000		0.248635		-0.082929		2.072897		1.063629		21.234739		1.789005		0.493346		0.375738		1.310765		1.913806		-0.099407		-0.008375		-0.002310		-18.494677		-0.287245		1.305562		-0.265569		1.309919		1.925010		0.019333		0.000300		-0.001365		
1.608439		8.702115		-67.658109		-57.156940		0.165808		0.000000		0.203306		0.003658		-0.028438		-0.024024		12.206023		-61.543895		-39.961009		-0.138174		0.000000		0.257537		-0.287178		1.448061		0.940225		21.106140		1.776821		0.518946		0.375691		1.310783		1.913787		-0.097689		-0.008224		-0.002402		-18.565723		-0.222076		1.263303		-0.265607		1.309931		1.924999		0.020131		0.000241		-0.001370		
1.611419		3.543400		-27.223229		-26.635900		0.176380		0.000000		0.209856		0.000270		-0.002068		-0.002029		21.847786		27.200638		-6.468425		-0.078600		0.000000		0.195163		-0.157273		-0.206819		0.041383		20.934722		1.773098		0.511866		0.375646		1.310798		1.913769		-0.096116		-0.008141		-0.002350		-18.535859		-0.177685		1.257176		-0.265630		1.309941		1.924989		0.020675		0.000198		-0.001402		
1.614399		-8.097230		70.236833		45.226562		0.153049		0.000000		0.199586		-0.037005		0.321033		0.206421		29.576706		188.350923		61.889582		-0.119867		0.000000		0.230352		-0.564901		-3.598783		-1.182695		20.744203		1.776975		0.466234		0.375605		1.310815		1.913757		-0.095109		-0.008147		-0.002137		-18.421074		-0.163678		1.274744		-0.265638		1.309947		1.924980		0.020930		0.000186		-0.001448		
1.617379		-26.043978		229.508711		157.646085		0.158336		0.000000		0.203352		-0.085895		0.756932		0.519925		32.383584		413.974506		162.938733		-0.121457		0.000000		0.233091		-0.633586		-8.099171		-3.187786		20.580566		1.778182		0.387037		0.375572		1.310842		1.913754		-0.094877		-0.008197		-0.001784		-18.256116		-0.181415		1.299152		-0.265630		1.309949		1.924971		0.020865		0.000208		-0.001485		
1.620359		-48.036693		440.007741		295.739472		0.159339		0.000000		0.205352		-0.175216		1.605012		1.078731		28.624221		675.937895		283.566234		-0.120842		0.000000		0.232653		-0.543270		-12.826755		-5.380961		20.499316		1.763847		0.288457		0.375552		1.310882		1.913765		-0.095389		-0.008207		-0.001342		-18.082903		-0.224846		1.317642		-0.265609		1.309946		1.924964		0.020539		0.000255		-0.001497		
1.623338		-70.074523		676.448053		431.802161		0.159512		0.000000		0.207293		-0.314032		3.031689		1.935065		19.501245		932.198726		401.716281		-0.119150		0.000000		0.230597		-0.346971		-16.579118		-7.144454		20.541102		1.728088		0.192291		0.375543		1.310934		1.913787		-0.096514		-0.008119		-0.000904		-17.940182		-0.282346		1.327956		-0.265576		1.309941		1.924957		0.020117		0.000316		-0.001489		
1.626318		-87.789081		906.036900		533.135238		0.159344		0.000000		0.209474		-0.508809		5.251894		3.089819		9.588053		1140.738553		493.069031		-0.116606		0.000000		0.227192		-0.152704		-18.150765		-7.845482		20.709357		1.678370		0.123239		0.375545		1.310991		1.913816		-0.098114		-0.007952		-0.000584		-17.854111		-0.339918		1.337471		-0.265534		1.309932		1.924950		0.019783		0.000377		-0.001482		
1.629298		-98.422116		1099.525518		574.552652		0.159072		0.000000		0.212014		-0.756456		8.452124		4.415435		5.589276		1274.899561		540.228181		-0.113418		0.000000		0.222624		-0.073375		-16.739488		-7.093600		20.963692		1.634413		0.101480		0.375556		1.311042		1.913846		-0.100040		-0.007799		-0.000484		-17.830302		-0.384943		1.356317		-0.265487		1.309922		1.924943		0.019679		0.000425		-0.001497		
1.632278		-102.179865		1240.280117		549.821279		0.158913		0.000000		0.214929		-1.040375		12.630206		5.597029		13.489250		1331.686566		539.918335		-0.110029		0.000000		0.217371		-0.123210		-12.209875		-4.951337		21.232895		1.619474		0.135357		0.375575		1.311077		1.913872		-0.102070		-0.007785		-0.000651		-17.851336		-0.409354		1.389792		-0.265440		1.309912		1.924935		0.019929		0.000457		-0.001551		
1.635258		-101.667739		1327.042683		475.482525		0.159024		0.000000		0.218144		-1.333638		17.409423		6.235457		35.555404		1329.828299		504.192392		-0.107206		0.000000		0.212424		-0.138366		-5.219544		-1.980510		21.440939		1.648687		0.219148		0.375599		1.311092		1.913891		-0.103914		-0.007991		-0.001062		-17.883627		-0.411607		1.435548		-0.265395		1.309902		1.924930		0.020661		0.000476		-0.001659		
1.638237		-99.638699		1370.706393		384.271937		0.159377		0.000000		0.221539		-1.602837		22.051030		6.180032		68.861075		1299.756541		454.780173		-0.105949		0.000000		0.209237		0.144971		2.705898		0.945249		21.533970		1.721639		0.335688		0.375627		1.311087		1.913900		-0.105230		-0.008413		-0.001640		-17.891000		-0.396933		1.486930		-0.265359		1.309897		1.924927		0.021926		0.000486		-0.001822		
1.641217		-96.837679		1387.455569		310.603365		0.159640		0.000000		0.224918		-1.806347		25.881641		5.793093		105.955797		1270.420004		413.339173		-0.107023		0.000000		0.209020		0.774061		9.268416		3.014840		21.496863		1.822272		0.460575		0.375662		1.311074		1.913903		-0.105679		-0.008958		-0.002264		-17.847605		-0.375684		1.538537		-0.265330		1.309894		1.924928		0.023585		0.000497		-0.002034		
1.644197		-91.768549		1391.891002		275.958871		0.159346		0.000000		0.228016		-1.900865		28.832550		5.716238		137.325558		1259.025950		392.661627		-0.110248		0.000000		0.211676		1.317620		12.079833		3.767413		21.353978		1.924980		0.568176		0.375702		1.311059		1.913902		-0.105044		-0.009469		-0.002795		-17.746570		-0.359909		1.588278		-0.265309		1.309896		1.924931		0.025313		0.000514		-0.002265		
1.647177		-82.548067		1392.710242		282.154014		0.158224		0.000000		0.230566		-1.860953		31.399431		6.361601		154.810330		1267.612727		393.204347		-0.114205		0.000000		0.215738		1.208876		9.899761		3.070739		21.156686		2.004181		0.637695		0.375747		1.311052		1.913898		-0.103349		-0.009790		-0.003115		-17.602852		-0.357830		1.635715		-0.265295		1.309904		1.924936		0.026746		0.000543		-0.002485		
1.650157		-69.055903		1391.710855		314.924415		0.156341		0.000000		0.232393		-1.694213		34.148072		7.727748		154.702947		1286.780713		405.863509		-0.117073		0.000000		0.219628		0.409028		3.398516		1.071610		20.964057		2.043683		0.656584		0.375795		1.311057		1.913892		-0.100940		-0.009840		-0.003161		-17.449324		-0.368726		1.680436		-0.265285		1.309915		1.924942		0.027641		0.000584		-0.002662		
1.653136		-53.507705		1385.476100		354.209587		0.154009		0.000000		0.233446		-1.434303		37.143547		9.496599		139.150757		1303.284143		418.372896		-0.117876		0.000000		0.222578		-0.559851		-5.251552		-1.686013		20.822864		2.042605		0.619415		0.375840		1.311070		1.913887		-0.098435		-0.009656		-0.002928		-17.326291		-0.382917		1.721601		-0.265278		1.309929		1.924948		0.027885		0.000616		-0.002771		
1.656116		-39.186054		1368.629885		383.983746		0.151664		0.000000		0.233758		-1.140218		39.828199		11.174524		115.111509		1306.952034		421.464932		-0.116845		0.000000		0.224482		-1.185671		-13.469660		-4.343629		20.753507		2.015140		0.526297		0.375876		1.311083		1.913881		-0.096557		-0.009376		-0.002449		-17.266263		-0.388156		1.756907		-0.265271		1.309941		1.924953		0.027422		0.000616		-0.002791		
1.659096		-28.709334		1337.152821		396.877956		0.149714		0.000000		0.233290		-0.887937		41.358151		12.275532		91.199691		1294.104776		412.040643		-0.114882		0.000000		0.225439		-1.355925		-19.244297		-6.127221		20.747595		1.982790		0.384881		0.375901		1.311090		1.913876		-0.095889		-0.009164		-0.001779		-17.280644		-0.378216		1.781302		-0.265264		1.309952		1.924958		0.026235		0.000574		-0.002704		
1.662076		-23.141464		1290.596205		393.244765		0.148369		0.000000		0.231858		-0.738894		41.208200		12.556151		73.914759		1267.347606		392.772404		-0.112905		0.000000		0.225570		-1.262895		-21.654236		-6.710974		20.778329		1.962477		0.215191		0.375914		1.311085		1.913873		-0.096655		-0.009129		-0.001001		-17.357180		-0.357890		1.788690		-0.265255		1.309960		1.924965		0.024425		0.000504		-0.002517		
1.665056		-22.063354		1232.509349		377.719597		0.147573		0.000000		0.229257		-0.707557		39.525791		12.113228		65.306693		1233.125095		369.399915		-0.111467		0.000000		0.225052		-1.110696		-20.972084		-6.282522		20.816887		1.957836		0.051746		0.375918		1.311064		1.913873		-0.098633		-0.009276		-0.000245		-17.469486		-0.340988		1.777009		-0.265245		1.309964		1.924975		0.022292		0.000435		-0.002267		
1.668035		-24.076387		1169.177297		356.248573		0.147085		0.000000		0.225498		-0.760843		36.947677		11.257969		63.242929		1198.616004		347.562962		-0.110645		0.000000		0.224157		-0.972302		-18.427746		-5.343536		20.845577		1.958618		-0.062609		0.375917		1.311035		1.913876		-0.101309		-0.009519		0.000304		-17.590963		-0.342057		1.751864		-0.265231		1.309963		1.924990		0.020316		0.000395		-0.002023		
1.671015		-27.307193		1107.417056		334.412679		0.146632		0.000000		0.220995		-0.842649		34.172958		10.319393		63.664017		1169.227503		330.588357		-0.110180		0.000000		0.223158		-0.852379		-15.654496		-4.426174		20.863940		1.948120		-0.089656		0.375916		1.311004		1.913884		-0.104129		-0.009723		0.000447		-17.702961		-0.366753		1.723940		-0.265213		1.309960		1.925009		0.019014		0.000394		-0.001851		
1.673995		-29.996950		1052.562174		316.465675		0.146043		0.000000		0.216561		-0.902176		31.656441		9.517896		63.187992		1147.409170		318.905370		-0.109737		0.000000		0.222236		-0.768649		-13.957620		-3.879315		20.887939		1.914496		-0.008450		0.375920		1.310978		1.913894		-0.106630		-0.009773		0.000043		-17.794112		-0.407273		1.701960		-0.265189		1.309958		1.925031		0.018776		0.000430		-0.001796		
1.676975		-31.108809		1007.230367		304.372149		0.145286		0.000000		0.213060		-0.914305		29.603077		8.945669		60.690212		1132.779707		310.863541		-0.109153		0.000000		0.221509		-0.737536		-13.766085		-3.777761		20.942164		1.860501		0.176946		0.375930		1.310959		1.913903		-0.108444		-0.009634		-0.000916		-17.856253		-0.446540		1.688072		-0.265160		1.309956		1.925054		0.019748		0.000493		-0.001867		
1.679955		-30.598563		971.142994		297.375068		0.144431		0.000000		0.210946		-0.884100		28.059749		8.592211		57.372988		1123.027727		304.093427		-0.108540		0.000000		0.221052		-0.745370		-14.590104		-3.950697		21.044593		1.806338		0.434770		0.375946		1.310945		1.913907		-0.109326		-0.009384		-0.002258		-17.883086		-0.469349		1.678809		-0.265125		1.309956		1.925078		0.021769		0.000572		-0.002044		
1.682934		-29.128597		941.863308		292.784903		0.143566		0.000000		0.210031		-0.833769		26.959628		8.380590		55.616546		1115.045420		296.659079		-0.108169		0.000000		0.220863		-0.771889		-15.475450		-4.117247		21.191720		1.782701		0.711889		0.375966		1.310929		1.913905		-0.109198		-0.009186		-0.003668		-17.871362		-0.471137		1.671466		-0.265087		1.309958		1.925100		0.024320		0.000641		-0.002275		
1.685914		-27.513081		916.048791		287.777348		0.142742		0.000000		0.209655		-0.784199		26.109922		8.202449		57.361466		1105.916996		287.658719		-0.108262		0.000000		0.220858		-0.809549		-15.607989		-4.059780		21.354827		1.816322		0.947445		0.375987		1.310907		1.913898		-0.108146		-0.009198		-0.004798		-17.822315		-0.457332		1.670720		-0.265050		1.309960		1.925122		0.026580		0.000682		-0.002492		
